<mxfile host="app.diagrams.net" modified="2023-12-07T07:21:15.288Z" agent="Mozilla/5.0 (Windows NT 10.0; Win64; x64) AppleWebKit/537.36 (KHTML, like Gecko) Chrome/120.0.0.0 Safari/537.36 Edg/120.0.0.0" etag="3sRanxy5gZPwtSLYt_dP" version="22.1.7" type="github">
  <diagram id="C5RBs43oDa-KdzZeNtuy" name="Page-1">
    <mxGraphModel dx="815" dy="449" grid="1" gridSize="10" guides="1" tooltips="1" connect="1" arrows="1" fold="1" page="1" pageScale="1" pageWidth="827" pageHeight="1169" math="0" shadow="0">
      <root>
        <mxCell id="WIyWlLk6GJQsqaUBKTNV-0" />
        <mxCell id="WIyWlLk6GJQsqaUBKTNV-1" parent="WIyWlLk6GJQsqaUBKTNV-0" />
        <mxCell id="knHTFE6z7iOE985WpFY_-4" value="野外地质调查" style="rounded=0;whiteSpace=wrap;html=1;" parent="WIyWlLk6GJQsqaUBKTNV-1" vertex="1">
          <mxGeometry x="150" y="200" width="90" height="40" as="geometry" />
        </mxCell>
        <mxCell id="knHTFE6z7iOE985WpFY_-5" value="室内综合研究" style="rounded=0;whiteSpace=wrap;html=1;" parent="WIyWlLk6GJQsqaUBKTNV-1" vertex="1">
          <mxGeometry x="150" y="300" width="90" height="40" as="geometry" />
        </mxCell>
        <mxCell id="knHTFE6z7iOE985WpFY_-13" value="" style="shape=partialRectangle;whiteSpace=wrap;html=1;bottom=1;right=1;left=1;top=0;fillColor=none;routingCenterX=-0.5;rotation=-90;" parent="WIyWlLk6GJQsqaUBKTNV-1" vertex="1">
          <mxGeometry x="194.69" y="262.82" width="105" height="14.37" as="geometry" />
        </mxCell>
        <mxCell id="knHTFE6z7iOE985WpFY_-16" value="" style="endArrow=none;html=1;rounded=0;" parent="WIyWlLk6GJQsqaUBKTNV-1" edge="1">
          <mxGeometry width="50" height="50" relative="1" as="geometry">
            <mxPoint x="270.46" y="420" as="sourcePoint" />
            <mxPoint x="270.46" y="120" as="targetPoint" />
            <Array as="points">
              <mxPoint x="270.46" y="270" />
            </Array>
          </mxGeometry>
        </mxCell>
        <mxCell id="knHTFE6z7iOE985WpFY_-17" value="" style="endArrow=classic;html=1;rounded=0;" parent="WIyWlLk6GJQsqaUBKTNV-1" edge="1">
          <mxGeometry width="50" height="50" relative="1" as="geometry">
            <mxPoint x="270.31" y="180" as="sourcePoint" />
            <mxPoint x="300.31" y="180" as="targetPoint" />
          </mxGeometry>
        </mxCell>
        <mxCell id="knHTFE6z7iOE985WpFY_-19" value="" style="endArrow=classic;html=1;rounded=0;" parent="WIyWlLk6GJQsqaUBKTNV-1" edge="1">
          <mxGeometry width="50" height="50" relative="1" as="geometry">
            <mxPoint x="270.61" y="240" as="sourcePoint" />
            <mxPoint x="300.61" y="240" as="targetPoint" />
          </mxGeometry>
        </mxCell>
        <mxCell id="knHTFE6z7iOE985WpFY_-20" value="" style="endArrow=classic;html=1;rounded=0;" parent="WIyWlLk6GJQsqaUBKTNV-1" edge="1">
          <mxGeometry width="50" height="50" relative="1" as="geometry">
            <mxPoint x="270.46" y="300" as="sourcePoint" />
            <mxPoint x="300.46" y="300" as="targetPoint" />
            <Array as="points">
              <mxPoint x="270.46" y="300" />
            </Array>
          </mxGeometry>
        </mxCell>
        <mxCell id="knHTFE6z7iOE985WpFY_-21" value="" style="endArrow=classic;html=1;rounded=0;" parent="WIyWlLk6GJQsqaUBKTNV-1" edge="1">
          <mxGeometry width="50" height="50" relative="1" as="geometry">
            <mxPoint x="270.77" y="360" as="sourcePoint" />
            <mxPoint x="300.77" y="360" as="targetPoint" />
          </mxGeometry>
        </mxCell>
        <mxCell id="knHTFE6z7iOE985WpFY_-22" value="" style="endArrow=none;html=1;rounded=0;exitX=0.5;exitY=1;exitDx=0;exitDy=0;" parent="WIyWlLk6GJQsqaUBKTNV-1" edge="1">
          <mxGeometry width="50" height="50" relative="1" as="geometry">
            <mxPoint x="254.375" y="270.00499999999977" as="sourcePoint" />
            <mxPoint x="270" y="270" as="targetPoint" />
          </mxGeometry>
        </mxCell>
        <mxCell id="knHTFE6z7iOE985WpFY_-23" value="研究内容" style="rounded=0;whiteSpace=wrap;html=1;" parent="WIyWlLk6GJQsqaUBKTNV-1" vertex="1">
          <mxGeometry x="70" y="250" width="60" height="40" as="geometry" />
        </mxCell>
        <mxCell id="knHTFE6z7iOE985WpFY_-24" value="" style="endArrow=none;html=1;rounded=0;exitX=1;exitY=0.5;exitDx=0;exitDy=0;" parent="WIyWlLk6GJQsqaUBKTNV-1" source="knHTFE6z7iOE985WpFY_-23" edge="1">
          <mxGeometry width="50" height="50" relative="1" as="geometry">
            <mxPoint x="350" y="280" as="sourcePoint" />
            <mxPoint x="140" y="270" as="targetPoint" />
          </mxGeometry>
        </mxCell>
        <mxCell id="knHTFE6z7iOE985WpFY_-25" value="" style="endArrow=none;html=1;rounded=0;" parent="WIyWlLk6GJQsqaUBKTNV-1" edge="1">
          <mxGeometry width="50" height="50" relative="1" as="geometry">
            <mxPoint x="140" y="320" as="sourcePoint" />
            <mxPoint x="140" y="220" as="targetPoint" />
          </mxGeometry>
        </mxCell>
        <mxCell id="knHTFE6z7iOE985WpFY_-26" value="" style="endArrow=classic;html=1;rounded=0;entryX=0;entryY=0.5;entryDx=0;entryDy=0;" parent="WIyWlLk6GJQsqaUBKTNV-1" target="knHTFE6z7iOE985WpFY_-4" edge="1">
          <mxGeometry width="50" height="50" relative="1" as="geometry">
            <mxPoint x="140" y="220" as="sourcePoint" />
            <mxPoint x="400" y="230" as="targetPoint" />
          </mxGeometry>
        </mxCell>
        <mxCell id="knHTFE6z7iOE985WpFY_-27" value="" style="endArrow=classic;html=1;rounded=0;entryX=0;entryY=0.5;entryDx=0;entryDy=0;" parent="WIyWlLk6GJQsqaUBKTNV-1" target="knHTFE6z7iOE985WpFY_-5" edge="1">
          <mxGeometry width="50" height="50" relative="1" as="geometry">
            <mxPoint x="140" y="320" as="sourcePoint" />
            <mxPoint x="130" y="350" as="targetPoint" />
          </mxGeometry>
        </mxCell>
        <mxCell id="knHTFE6z7iOE985WpFY_-28" value="锆石U-Pb测年" style="rounded=0;whiteSpace=wrap;html=1;" parent="WIyWlLk6GJQsqaUBKTNV-1" vertex="1">
          <mxGeometry x="300" y="160" width="100.31" height="40" as="geometry" />
        </mxCell>
        <mxCell id="knHTFE6z7iOE985WpFY_-29" value="石榴子石U-Pb&lt;br&gt;测年" style="rounded=0;whiteSpace=wrap;html=1;" parent="WIyWlLk6GJQsqaUBKTNV-1" vertex="1">
          <mxGeometry x="300.3" y="220" width="100.31" height="40" as="geometry" />
        </mxCell>
        <mxCell id="knHTFE6z7iOE985WpFY_-31" value="硫化物原位微区&lt;br&gt;硫同位素" style="rounded=0;whiteSpace=wrap;html=1;" parent="WIyWlLk6GJQsqaUBKTNV-1" vertex="1">
          <mxGeometry x="300.15" y="280" width="100.31" height="40" as="geometry" />
        </mxCell>
        <mxCell id="knHTFE6z7iOE985WpFY_-32" value="流体包裹体测温&lt;br&gt;+拉曼光谱" style="rounded=0;whiteSpace=wrap;html=1;" parent="WIyWlLk6GJQsqaUBKTNV-1" vertex="1">
          <mxGeometry x="300.46" y="340" width="100.31" height="40" as="geometry" />
        </mxCell>
        <mxCell id="blVpgFFELeMKtGCo7wOv-0" value="" style="endArrow=none;html=1;rounded=0;" parent="WIyWlLk6GJQsqaUBKTNV-1" edge="1">
          <mxGeometry width="50" height="50" relative="1" as="geometry">
            <mxPoint x="410.46" y="240" as="sourcePoint" />
            <mxPoint x="410.46" y="180" as="targetPoint" />
            <Array as="points" />
          </mxGeometry>
        </mxCell>
        <mxCell id="blVpgFFELeMKtGCo7wOv-1" value="" style="endArrow=none;html=1;rounded=0;exitX=1;exitY=0.5;exitDx=0;exitDy=0;" parent="WIyWlLk6GJQsqaUBKTNV-1" source="knHTFE6z7iOE985WpFY_-28" edge="1">
          <mxGeometry width="50" height="50" relative="1" as="geometry">
            <mxPoint x="400.31" y="270" as="sourcePoint" />
            <mxPoint x="410.46" y="180" as="targetPoint" />
          </mxGeometry>
        </mxCell>
        <mxCell id="blVpgFFELeMKtGCo7wOv-6" value="" style="endArrow=none;html=1;rounded=0;exitX=1;exitY=0.5;exitDx=0;exitDy=0;" parent="WIyWlLk6GJQsqaUBKTNV-1" source="knHTFE6z7iOE985WpFY_-32" edge="1">
          <mxGeometry width="50" height="50" relative="1" as="geometry">
            <mxPoint x="370.77" y="380" as="sourcePoint" />
            <mxPoint x="410.46" y="360" as="targetPoint" />
          </mxGeometry>
        </mxCell>
        <mxCell id="blVpgFFELeMKtGCo7wOv-8" value="" style="endArrow=classic;html=1;rounded=0;" parent="WIyWlLk6GJQsqaUBKTNV-1" edge="1">
          <mxGeometry width="50" height="50" relative="1" as="geometry">
            <mxPoint x="410.46" y="210" as="sourcePoint" />
            <mxPoint x="450.46000000000004" y="209.8" as="targetPoint" />
          </mxGeometry>
        </mxCell>
        <mxCell id="blVpgFFELeMKtGCo7wOv-13" value="成矿流体特征" style="rounded=0;whiteSpace=wrap;html=1;" parent="WIyWlLk6GJQsqaUBKTNV-1" vertex="1">
          <mxGeometry x="450.46" y="420" width="100.31" height="40" as="geometry" />
        </mxCell>
        <mxCell id="blVpgFFELeMKtGCo7wOv-14" value="成矿物质来源" style="rounded=0;whiteSpace=wrap;html=1;" parent="WIyWlLk6GJQsqaUBKTNV-1" vertex="1">
          <mxGeometry x="450.46000000000004" y="280" width="100.31" height="40" as="geometry" />
        </mxCell>
        <mxCell id="blVpgFFELeMKtGCo7wOv-16" value="成岩成矿时代" style="rounded=0;whiteSpace=wrap;html=1;" parent="WIyWlLk6GJQsqaUBKTNV-1" vertex="1">
          <mxGeometry x="450.46000000000004" y="190" width="100.31" height="40" as="geometry" />
        </mxCell>
        <mxCell id="blVpgFFELeMKtGCo7wOv-17" value="" style="endArrow=none;html=1;rounded=0;" parent="WIyWlLk6GJQsqaUBKTNV-1" edge="1">
          <mxGeometry width="50" height="50" relative="1" as="geometry">
            <mxPoint x="570" y="440" as="sourcePoint" />
            <mxPoint x="570.46" y="210" as="targetPoint" />
          </mxGeometry>
        </mxCell>
        <mxCell id="blVpgFFELeMKtGCo7wOv-22" value="" style="endArrow=none;html=1;rounded=0;exitX=1;exitY=0.5;exitDx=0;exitDy=0;" parent="WIyWlLk6GJQsqaUBKTNV-1" source="blVpgFFELeMKtGCo7wOv-16" edge="1">
          <mxGeometry width="50" height="50" relative="1" as="geometry">
            <mxPoint x="550.77" y="219.82999999999998" as="sourcePoint" />
            <mxPoint x="570.46" y="210" as="targetPoint" />
          </mxGeometry>
        </mxCell>
        <mxCell id="blVpgFFELeMKtGCo7wOv-24" value="" style="endArrow=none;html=1;rounded=0;" parent="WIyWlLk6GJQsqaUBKTNV-1" edge="1">
          <mxGeometry width="50" height="50" relative="1" as="geometry">
            <mxPoint x="550.77" y="300" as="sourcePoint" />
            <mxPoint x="570.46" y="300" as="targetPoint" />
          </mxGeometry>
        </mxCell>
        <mxCell id="blVpgFFELeMKtGCo7wOv-25" value="" style="endArrow=none;html=1;rounded=0;exitX=1;exitY=0.5;exitDx=0;exitDy=0;" parent="WIyWlLk6GJQsqaUBKTNV-1" edge="1" source="blVpgFFELeMKtGCo7wOv-13">
          <mxGeometry width="50" height="50" relative="1" as="geometry">
            <mxPoint x="550.77" y="439.59999999999997" as="sourcePoint" />
            <mxPoint x="570.46" y="439.59999999999997" as="targetPoint" />
          </mxGeometry>
        </mxCell>
        <mxCell id="blVpgFFELeMKtGCo7wOv-26" value="" style="endArrow=classic;html=1;rounded=0;" parent="WIyWlLk6GJQsqaUBKTNV-1" edge="1">
          <mxGeometry width="50" height="50" relative="1" as="geometry">
            <mxPoint x="570.46" y="299.76" as="sourcePoint" />
            <mxPoint x="590.46" y="299.76" as="targetPoint" />
          </mxGeometry>
        </mxCell>
        <mxCell id="blVpgFFELeMKtGCo7wOv-27" value="矿床成因" style="rounded=0;whiteSpace=wrap;html=1;" parent="WIyWlLk6GJQsqaUBKTNV-1" vertex="1">
          <mxGeometry x="590.46" y="280" width="100.31" height="40" as="geometry" />
        </mxCell>
        <mxCell id="EzFnGeIkoz2O85e2BJYY-2" value="硫化物原位微区&lt;br&gt;微量元素" style="rounded=0;whiteSpace=wrap;html=1;" parent="WIyWlLk6GJQsqaUBKTNV-1" vertex="1">
          <mxGeometry x="300.46" y="400" width="100.31" height="40" as="geometry" />
        </mxCell>
        <mxCell id="EzFnGeIkoz2O85e2BJYY-3" value="" style="endArrow=classic;html=1;rounded=0;" parent="WIyWlLk6GJQsqaUBKTNV-1" edge="1">
          <mxGeometry width="50" height="50" relative="1" as="geometry">
            <mxPoint x="270.46" y="419.71" as="sourcePoint" />
            <mxPoint x="300.46" y="419.71" as="targetPoint" />
          </mxGeometry>
        </mxCell>
        <mxCell id="EzFnGeIkoz2O85e2BJYY-4" value="" style="endArrow=none;html=1;rounded=0;exitX=1;exitY=0.5;exitDx=0;exitDy=0;" parent="WIyWlLk6GJQsqaUBKTNV-1" edge="1">
          <mxGeometry width="50" height="50" relative="1" as="geometry">
            <mxPoint x="400.77" y="419.71" as="sourcePoint" />
            <mxPoint x="410.46" y="420" as="targetPoint" />
          </mxGeometry>
        </mxCell>
        <mxCell id="EzFnGeIkoz2O85e2BJYY-9" value="" style="endArrow=none;html=1;rounded=0;" parent="WIyWlLk6GJQsqaUBKTNV-1" edge="1">
          <mxGeometry width="50" height="50" relative="1" as="geometry">
            <mxPoint x="410" y="440" as="sourcePoint" />
            <mxPoint x="410.27" y="360" as="targetPoint" />
          </mxGeometry>
        </mxCell>
        <mxCell id="EzFnGeIkoz2O85e2BJYY-11" value="" style="endArrow=classic;html=1;rounded=0;exitX=1;exitY=0.5;exitDx=0;exitDy=0;entryX=-0.01;entryY=0.452;entryDx=0;entryDy=0;entryPerimeter=0;" parent="WIyWlLk6GJQsqaUBKTNV-1" edge="1">
          <mxGeometry width="50" height="50" relative="1" as="geometry">
            <mxPoint x="400.46" y="300" as="sourcePoint" />
            <mxPoint x="449.46000000000004" y="301" as="targetPoint" />
          </mxGeometry>
        </mxCell>
        <mxCell id="EzFnGeIkoz2O85e2BJYY-14" value="" style="endArrow=none;html=1;rounded=0;" parent="WIyWlLk6GJQsqaUBKTNV-1" edge="1">
          <mxGeometry width="50" height="50" relative="1" as="geometry">
            <mxPoint x="400.61" y="240" as="sourcePoint" />
            <mxPoint x="410.46" y="240" as="targetPoint" />
          </mxGeometry>
        </mxCell>
        <mxCell id="NL_-hF7wj7waPXYXWHYc-0" value="矿物组合及&lt;br&gt;期次划分" style="rounded=0;whiteSpace=wrap;html=1;" vertex="1" parent="WIyWlLk6GJQsqaUBKTNV-1">
          <mxGeometry x="300" y="100" width="100.31" height="40" as="geometry" />
        </mxCell>
        <mxCell id="NL_-hF7wj7waPXYXWHYc-2" value="" style="endArrow=classic;html=1;rounded=0;" edge="1" parent="WIyWlLk6GJQsqaUBKTNV-1">
          <mxGeometry width="50" height="50" relative="1" as="geometry">
            <mxPoint x="270" y="119.82999999999998" as="sourcePoint" />
            <mxPoint x="300" y="119.82999999999998" as="targetPoint" />
          </mxGeometry>
        </mxCell>
        <mxCell id="NL_-hF7wj7waPXYXWHYc-3" value="" style="endArrow=none;html=1;rounded=0;" edge="1" parent="WIyWlLk6GJQsqaUBKTNV-1">
          <mxGeometry width="50" height="50" relative="1" as="geometry">
            <mxPoint x="500.46000000000004" y="120" as="sourcePoint" />
            <mxPoint x="400.46" y="120" as="targetPoint" />
          </mxGeometry>
        </mxCell>
        <mxCell id="NL_-hF7wj7waPXYXWHYc-4" value="" style="endArrow=classic;html=1;rounded=0;" edge="1" parent="WIyWlLk6GJQsqaUBKTNV-1">
          <mxGeometry width="50" height="50" relative="1" as="geometry">
            <mxPoint x="500.46000000000004" y="120" as="sourcePoint" />
            <mxPoint x="500.46000000000004" y="190" as="targetPoint" />
          </mxGeometry>
        </mxCell>
        <mxCell id="NL_-hF7wj7waPXYXWHYc-5" value="" style="endArrow=none;html=1;rounded=0;" edge="1" parent="WIyWlLk6GJQsqaUBKTNV-1" source="NL_-hF7wj7waPXYXWHYc-15">
          <mxGeometry width="50" height="50" relative="1" as="geometry">
            <mxPoint x="430.46" y="340" as="sourcePoint" />
            <mxPoint x="429.97999999999996" y="120" as="targetPoint" />
          </mxGeometry>
        </mxCell>
        <mxCell id="NL_-hF7wj7waPXYXWHYc-6" value="" style="endArrow=classic;html=1;rounded=0;entryX=0.3;entryY=0.022;entryDx=0;entryDy=0;entryPerimeter=0;" edge="1" parent="WIyWlLk6GJQsqaUBKTNV-1">
          <mxGeometry width="50" height="50" relative="1" as="geometry">
            <mxPoint x="500.5" y="260" as="sourcePoint" />
            <mxPoint x="500.5930000000001" y="280.88" as="targetPoint" />
          </mxGeometry>
        </mxCell>
        <mxCell id="NL_-hF7wj7waPXYXWHYc-7" value="" style="endArrow=none;html=1;rounded=0;" edge="1" parent="WIyWlLk6GJQsqaUBKTNV-1" source="NL_-hF7wj7waPXYXWHYc-20">
          <mxGeometry width="50" height="50" relative="1" as="geometry">
            <mxPoint x="420.34999999999997" y="300" as="sourcePoint" />
            <mxPoint x="420" y="340" as="targetPoint" />
          </mxGeometry>
        </mxCell>
        <mxCell id="NL_-hF7wj7waPXYXWHYc-8" value="" style="endArrow=none;html=1;rounded=0;" edge="1" parent="WIyWlLk6GJQsqaUBKTNV-1">
          <mxGeometry width="50" height="50" relative="1" as="geometry">
            <mxPoint x="420.46" y="340.12" as="sourcePoint" />
            <mxPoint x="470.46000000000004" y="340" as="targetPoint" />
          </mxGeometry>
        </mxCell>
        <mxCell id="NL_-hF7wj7waPXYXWHYc-9" value="" style="endArrow=classic;html=1;rounded=0;" edge="1" parent="WIyWlLk6GJQsqaUBKTNV-1">
          <mxGeometry width="50" height="50" relative="1" as="geometry">
            <mxPoint x="470.46000000000004" y="340" as="sourcePoint" />
            <mxPoint x="470" y="360" as="targetPoint" />
          </mxGeometry>
        </mxCell>
        <mxCell id="NL_-hF7wj7waPXYXWHYc-12" value="" style="endArrow=none;html=1;rounded=0;" edge="1" parent="WIyWlLk6GJQsqaUBKTNV-1">
          <mxGeometry width="50" height="50" relative="1" as="geometry">
            <mxPoint x="430" y="330" as="sourcePoint" />
            <mxPoint x="500" y="330" as="targetPoint" />
            <Array as="points">
              <mxPoint x="470" y="330" />
            </Array>
          </mxGeometry>
        </mxCell>
        <mxCell id="NL_-hF7wj7waPXYXWHYc-13" value="" style="endArrow=classic;html=1;rounded=0;entryX=0.399;entryY=-0.028;entryDx=0;entryDy=0;entryPerimeter=0;" edge="1" parent="WIyWlLk6GJQsqaUBKTNV-1">
          <mxGeometry width="50" height="50" relative="1" as="geometry">
            <mxPoint x="500.41" y="330" as="sourcePoint" />
            <mxPoint x="500.74368999999996" y="358.8800000000001" as="targetPoint" />
          </mxGeometry>
        </mxCell>
        <mxCell id="NL_-hF7wj7waPXYXWHYc-14" value="" style="endArrow=none;html=1;rounded=0;" edge="1" parent="WIyWlLk6GJQsqaUBKTNV-1" source="NL_-hF7wj7waPXYXWHYc-16">
          <mxGeometry width="50" height="50" relative="1" as="geometry">
            <mxPoint x="420.46" y="260" as="sourcePoint" />
            <mxPoint x="500.46000000000004" y="260" as="targetPoint" />
          </mxGeometry>
        </mxCell>
        <mxCell id="NL_-hF7wj7waPXYXWHYc-16" value="" style="shape=waypoint;sketch=0;fillStyle=solid;size=6;pointerEvents=1;points=[];fillColor=none;resizable=0;rotatable=0;perimeter=centerPerimeter;snapToPoint=1;" vertex="1" parent="WIyWlLk6GJQsqaUBKTNV-1">
          <mxGeometry x="420.46" y="250" width="20" height="20" as="geometry" />
        </mxCell>
        <mxCell id="NL_-hF7wj7waPXYXWHYc-19" value="" style="endArrow=none;html=1;rounded=0;" edge="1" parent="WIyWlLk6GJQsqaUBKTNV-1" target="NL_-hF7wj7waPXYXWHYc-15">
          <mxGeometry width="50" height="50" relative="1" as="geometry">
            <mxPoint x="430" y="330" as="sourcePoint" />
            <mxPoint x="429.97999999999996" y="120" as="targetPoint" />
          </mxGeometry>
        </mxCell>
        <mxCell id="NL_-hF7wj7waPXYXWHYc-15" value="" style="shape=waypoint;sketch=0;fillStyle=solid;size=6;pointerEvents=1;points=[];fillColor=none;resizable=0;rotatable=0;perimeter=centerPerimeter;snapToPoint=1;" vertex="1" parent="WIyWlLk6GJQsqaUBKTNV-1">
          <mxGeometry x="420.46" y="110" width="20" height="20" as="geometry" />
        </mxCell>
        <mxCell id="NL_-hF7wj7waPXYXWHYc-20" value="" style="shape=waypoint;sketch=0;fillStyle=solid;size=6;pointerEvents=1;points=[];fillColor=none;resizable=0;rotatable=0;perimeter=centerPerimeter;snapToPoint=1;" vertex="1" parent="WIyWlLk6GJQsqaUBKTNV-1">
          <mxGeometry x="410.34999999999997" y="290" width="20" height="20" as="geometry" />
        </mxCell>
        <mxCell id="NL_-hF7wj7waPXYXWHYc-21" value="热力学模拟" style="rounded=0;whiteSpace=wrap;html=1;" vertex="1" parent="WIyWlLk6GJQsqaUBKTNV-1">
          <mxGeometry x="450.46" y="360" width="100.31" height="40" as="geometry" />
        </mxCell>
        <mxCell id="NL_-hF7wj7waPXYXWHYc-23" value="" style="endArrow=classic;html=1;rounded=0;entryX=0.5;entryY=0;entryDx=0;entryDy=0;exitX=0.5;exitY=1;exitDx=0;exitDy=0;" edge="1" parent="WIyWlLk6GJQsqaUBKTNV-1" source="NL_-hF7wj7waPXYXWHYc-21" target="blVpgFFELeMKtGCo7wOv-13">
          <mxGeometry width="50" height="50" relative="1" as="geometry">
            <mxPoint x="470" y="350" as="sourcePoint" />
            <mxPoint x="520" y="300" as="targetPoint" />
          </mxGeometry>
        </mxCell>
        <mxCell id="NL_-hF7wj7waPXYXWHYc-26" value="" style="endArrow=classic;html=1;rounded=0;exitX=1;exitY=0.5;exitDx=0;exitDy=0;entryX=0;entryY=0.5;entryDx=0;entryDy=0;" edge="1" parent="WIyWlLk6GJQsqaUBKTNV-1" target="blVpgFFELeMKtGCo7wOv-13">
          <mxGeometry width="50" height="50" relative="1" as="geometry">
            <mxPoint x="410.34999999999997" y="439.5" as="sourcePoint" />
            <mxPoint x="459.35" y="440.5" as="targetPoint" />
          </mxGeometry>
        </mxCell>
      </root>
    </mxGraphModel>
  </diagram>
</mxfile>
